<mxfile host="app.diagrams.net" modified="2022-08-03T15:04:25.019Z" agent="5.0 (Macintosh; Intel Mac OS X 10_15_7) AppleWebKit/537.36 (KHTML, like Gecko) Chrome/103.0.0.0 Safari/537.36" etag="TyHDueRoUn9m58d6ktEW" version="20.0.3" type="github">
  <diagram id="rsHQtJwCqYtkyzhS6A2Q" name="Page-1">
    <mxGraphModel dx="1878" dy="560" grid="1" gridSize="10" guides="1" tooltips="1" connect="1" arrows="1" fold="1" page="1" pageScale="1" pageWidth="827" pageHeight="1169" math="0" shadow="0">
      <root>
        <mxCell id="0" />
        <mxCell id="1" parent="0" />
        <mxCell id="LNZX4o1E4JshtJrWb8Li-1" value="1" style="rounded=0;whiteSpace=wrap;html=1;sketch=1;fontFamily=Comic Sans MS;" vertex="1" parent="1">
          <mxGeometry x="160" y="80" width="40" height="40" as="geometry" />
        </mxCell>
        <mxCell id="LNZX4o1E4JshtJrWb8Li-33" value="" style="rounded=0;whiteSpace=wrap;html=1;sketch=1;fontFamily=Comic Sans MS;" vertex="1" parent="1">
          <mxGeometry x="200" y="80" width="40" height="40" as="geometry" />
        </mxCell>
        <mxCell id="LNZX4o1E4JshtJrWb8Li-34" value="2" style="rounded=0;whiteSpace=wrap;html=1;sketch=1;fontFamily=Comic Sans MS;" vertex="1" parent="1">
          <mxGeometry x="320" y="80" width="40" height="40" as="geometry" />
        </mxCell>
        <mxCell id="LNZX4o1E4JshtJrWb8Li-35" value="" style="rounded=0;whiteSpace=wrap;html=1;sketch=1;fontFamily=Comic Sans MS;" vertex="1" parent="1">
          <mxGeometry x="360" y="80" width="40" height="40" as="geometry" />
        </mxCell>
        <mxCell id="LNZX4o1E4JshtJrWb8Li-36" value="3" style="rounded=0;whiteSpace=wrap;html=1;sketch=1;fontFamily=Comic Sans MS;" vertex="1" parent="1">
          <mxGeometry x="480" y="80" width="40" height="40" as="geometry" />
        </mxCell>
        <mxCell id="LNZX4o1E4JshtJrWb8Li-37" value="" style="rounded=0;whiteSpace=wrap;html=1;sketch=1;fontFamily=Comic Sans MS;" vertex="1" parent="1">
          <mxGeometry x="520" y="80" width="40" height="40" as="geometry" />
        </mxCell>
        <mxCell id="LNZX4o1E4JshtJrWb8Li-38" value="4" style="rounded=0;whiteSpace=wrap;html=1;sketch=1;fontFamily=Comic Sans MS;" vertex="1" parent="1">
          <mxGeometry x="640" y="80" width="40" height="40" as="geometry" />
        </mxCell>
        <mxCell id="LNZX4o1E4JshtJrWb8Li-39" value="" style="rounded=0;whiteSpace=wrap;html=1;sketch=1;fontFamily=Comic Sans MS;" vertex="1" parent="1">
          <mxGeometry x="680" y="80" width="40" height="40" as="geometry" />
        </mxCell>
        <mxCell id="LNZX4o1E4JshtJrWb8Li-40" value="" style="ellipse;whiteSpace=wrap;html=1;aspect=fixed;fontFamily=Comic Sans MS;labelBackgroundColor=#000000;fillColor=#000000;sketch=1;" vertex="1" parent="1">
          <mxGeometry x="216" y="95" width="10" height="10" as="geometry" />
        </mxCell>
        <mxCell id="LNZX4o1E4JshtJrWb8Li-41" value="" style="endArrow=classic;html=1;rounded=0;sketch=1;fontFamily=Comic Sans MS;" edge="1" parent="1" source="LNZX4o1E4JshtJrWb8Li-40" target="LNZX4o1E4JshtJrWb8Li-34">
          <mxGeometry width="50" height="50" relative="1" as="geometry">
            <mxPoint x="410" y="290" as="sourcePoint" />
            <mxPoint x="460" y="240" as="targetPoint" />
          </mxGeometry>
        </mxCell>
        <mxCell id="LNZX4o1E4JshtJrWb8Li-42" value="" style="ellipse;whiteSpace=wrap;html=1;aspect=fixed;fontFamily=Comic Sans MS;labelBackgroundColor=#000000;fillColor=#000000;sketch=1;" vertex="1" parent="1">
          <mxGeometry x="376" y="95" width="10" height="10" as="geometry" />
        </mxCell>
        <mxCell id="LNZX4o1E4JshtJrWb8Li-43" value="" style="endArrow=classic;html=1;rounded=0;sketch=1;fontFamily=Comic Sans MS;" edge="1" parent="1" source="LNZX4o1E4JshtJrWb8Li-42">
          <mxGeometry width="50" height="50" relative="1" as="geometry">
            <mxPoint x="570" y="290" as="sourcePoint" />
            <mxPoint x="480" y="100" as="targetPoint" />
          </mxGeometry>
        </mxCell>
        <mxCell id="LNZX4o1E4JshtJrWb8Li-44" value="" style="ellipse;whiteSpace=wrap;html=1;aspect=fixed;fontFamily=Comic Sans MS;labelBackgroundColor=#000000;fillColor=#000000;sketch=1;" vertex="1" parent="1">
          <mxGeometry x="535" y="95" width="10" height="10" as="geometry" />
        </mxCell>
        <mxCell id="LNZX4o1E4JshtJrWb8Li-45" value="" style="endArrow=classic;html=1;rounded=0;sketch=1;fontFamily=Comic Sans MS;" edge="1" parent="1" source="LNZX4o1E4JshtJrWb8Li-44" target="LNZX4o1E4JshtJrWb8Li-38">
          <mxGeometry width="50" height="50" relative="1" as="geometry">
            <mxPoint x="580" y="300" as="sourcePoint" />
            <mxPoint x="489.9999999999998" y="110" as="targetPoint" />
          </mxGeometry>
        </mxCell>
        <mxCell id="LNZX4o1E4JshtJrWb8Li-52" value="" style="ellipse;whiteSpace=wrap;html=1;aspect=fixed;fontFamily=Comic Sans MS;labelBackgroundColor=#000000;fillColor=#000000;sketch=1;" vertex="1" parent="1">
          <mxGeometry x="695" y="95" width="10" height="10" as="geometry" />
        </mxCell>
        <mxCell id="LNZX4o1E4JshtJrWb8Li-54" value="node *head" style="text;html=1;strokeColor=none;fillColor=none;align=center;verticalAlign=middle;whiteSpace=wrap;rounded=0;labelBackgroundColor=none;sketch=1;fontFamily=Comic Sans MS;" vertex="1" parent="1">
          <mxGeometry x="20" y="60" width="80" height="15" as="geometry" />
        </mxCell>
        <mxCell id="LNZX4o1E4JshtJrWb8Li-56" value="" style="rounded=0;whiteSpace=wrap;html=1;sketch=1;fontFamily=Comic Sans MS;" vertex="1" parent="1">
          <mxGeometry x="40" y="80" width="40" height="40" as="geometry" />
        </mxCell>
        <mxCell id="LNZX4o1E4JshtJrWb8Li-57" value="" style="ellipse;whiteSpace=wrap;html=1;aspect=fixed;fontFamily=Comic Sans MS;labelBackgroundColor=#000000;fillColor=#000000;sketch=1;" vertex="1" parent="1">
          <mxGeometry x="56" y="95" width="10" height="10" as="geometry" />
        </mxCell>
        <mxCell id="LNZX4o1E4JshtJrWb8Li-58" value="" style="endArrow=classic;html=1;rounded=0;sketch=1;fontFamily=Comic Sans MS;" edge="1" parent="1" source="LNZX4o1E4JshtJrWb8Li-57">
          <mxGeometry width="50" height="50" relative="1" as="geometry">
            <mxPoint x="250" y="290" as="sourcePoint" />
            <mxPoint x="160" y="100" as="targetPoint" />
          </mxGeometry>
        </mxCell>
        <mxCell id="LNZX4o1E4JshtJrWb8Li-59" value="1" style="rounded=0;whiteSpace=wrap;html=1;sketch=1;fontFamily=Comic Sans MS;" vertex="1" parent="1">
          <mxGeometry x="160" y="520" width="40" height="40" as="geometry" />
        </mxCell>
        <mxCell id="LNZX4o1E4JshtJrWb8Li-60" value="" style="rounded=0;whiteSpace=wrap;html=1;sketch=1;fontFamily=Comic Sans MS;" vertex="1" parent="1">
          <mxGeometry x="200" y="520" width="40" height="40" as="geometry" />
        </mxCell>
        <mxCell id="LNZX4o1E4JshtJrWb8Li-61" value="2" style="rounded=0;whiteSpace=wrap;html=1;sketch=1;fontFamily=Comic Sans MS;" vertex="1" parent="1">
          <mxGeometry x="320" y="520" width="40" height="40" as="geometry" />
        </mxCell>
        <mxCell id="LNZX4o1E4JshtJrWb8Li-62" value="" style="rounded=0;whiteSpace=wrap;html=1;sketch=1;fontFamily=Comic Sans MS;" vertex="1" parent="1">
          <mxGeometry x="360" y="520" width="40" height="40" as="geometry" />
        </mxCell>
        <mxCell id="LNZX4o1E4JshtJrWb8Li-63" value="3" style="rounded=0;whiteSpace=wrap;html=1;sketch=1;fontFamily=Comic Sans MS;" vertex="1" parent="1">
          <mxGeometry x="480" y="520" width="40" height="40" as="geometry" />
        </mxCell>
        <mxCell id="LNZX4o1E4JshtJrWb8Li-64" value="" style="rounded=0;whiteSpace=wrap;html=1;sketch=1;fontFamily=Comic Sans MS;" vertex="1" parent="1">
          <mxGeometry x="520" y="520" width="40" height="40" as="geometry" />
        </mxCell>
        <mxCell id="LNZX4o1E4JshtJrWb8Li-65" value="4" style="rounded=0;whiteSpace=wrap;html=1;sketch=1;fontFamily=Comic Sans MS;" vertex="1" parent="1">
          <mxGeometry x="640" y="520" width="40" height="40" as="geometry" />
        </mxCell>
        <mxCell id="LNZX4o1E4JshtJrWb8Li-66" value="" style="rounded=0;whiteSpace=wrap;html=1;sketch=1;fontFamily=Comic Sans MS;" vertex="1" parent="1">
          <mxGeometry x="680" y="520" width="40" height="40" as="geometry" />
        </mxCell>
        <mxCell id="LNZX4o1E4JshtJrWb8Li-67" value="" style="ellipse;whiteSpace=wrap;html=1;aspect=fixed;fontFamily=Comic Sans MS;labelBackgroundColor=#000000;fillColor=#000000;sketch=1;" vertex="1" parent="1">
          <mxGeometry x="216" y="535" width="10" height="10" as="geometry" />
        </mxCell>
        <mxCell id="LNZX4o1E4JshtJrWb8Li-68" value="" style="endArrow=classic;html=1;rounded=0;sketch=1;fontFamily=Comic Sans MS;edgeStyle=orthogonalEdgeStyle;entryX=0.5;entryY=0;entryDx=0;entryDy=0;" edge="1" parent="1" source="LNZX4o1E4JshtJrWb8Li-67" target="LNZX4o1E4JshtJrWb8Li-63">
          <mxGeometry width="50" height="50" relative="1" as="geometry">
            <mxPoint x="410" y="730" as="sourcePoint" />
            <mxPoint x="480" y="540" as="targetPoint" />
            <Array as="points">
              <mxPoint x="221" y="470" />
              <mxPoint x="500" y="470" />
            </Array>
          </mxGeometry>
        </mxCell>
        <mxCell id="LNZX4o1E4JshtJrWb8Li-69" value="" style="ellipse;whiteSpace=wrap;html=1;aspect=fixed;fontFamily=Comic Sans MS;labelBackgroundColor=#000000;fillColor=#000000;sketch=1;" vertex="1" parent="1">
          <mxGeometry x="376" y="535" width="10" height="10" as="geometry" />
        </mxCell>
        <mxCell id="LNZX4o1E4JshtJrWb8Li-70" value="" style="endArrow=classic;html=1;rounded=0;sketch=1;fontFamily=Comic Sans MS;edgeStyle=orthogonalEdgeStyle;entryX=0.5;entryY=1;entryDx=0;entryDy=0;" edge="1" parent="1" source="LNZX4o1E4JshtJrWb8Li-69" target="LNZX4o1E4JshtJrWb8Li-60">
          <mxGeometry width="50" height="50" relative="1" as="geometry">
            <mxPoint x="570" y="730" as="sourcePoint" />
            <mxPoint x="210" y="650" as="targetPoint" />
            <Array as="points">
              <mxPoint x="381" y="630" />
              <mxPoint x="220" y="630" />
            </Array>
          </mxGeometry>
        </mxCell>
        <mxCell id="LNZX4o1E4JshtJrWb8Li-71" value="" style="ellipse;whiteSpace=wrap;html=1;aspect=fixed;fontFamily=Comic Sans MS;labelBackgroundColor=#000000;fillColor=#000000;sketch=1;" vertex="1" parent="1">
          <mxGeometry x="535" y="535" width="10" height="10" as="geometry" />
        </mxCell>
        <mxCell id="LNZX4o1E4JshtJrWb8Li-72" value="" style="endArrow=classic;html=1;rounded=0;sketch=1;fontFamily=Comic Sans MS;" edge="1" parent="1" source="LNZX4o1E4JshtJrWb8Li-71" target="LNZX4o1E4JshtJrWb8Li-65">
          <mxGeometry width="50" height="50" relative="1" as="geometry">
            <mxPoint x="580" y="740" as="sourcePoint" />
            <mxPoint x="489.9999999999998" y="550" as="targetPoint" />
          </mxGeometry>
        </mxCell>
        <mxCell id="LNZX4o1E4JshtJrWb8Li-73" value="" style="ellipse;whiteSpace=wrap;html=1;aspect=fixed;fontFamily=Comic Sans MS;labelBackgroundColor=#000000;fillColor=#000000;sketch=1;" vertex="1" parent="1">
          <mxGeometry x="695" y="535" width="10" height="10" as="geometry" />
        </mxCell>
        <mxCell id="LNZX4o1E4JshtJrWb8Li-74" value="head" style="text;html=1;strokeColor=none;fillColor=none;align=center;verticalAlign=middle;whiteSpace=wrap;rounded=0;labelBackgroundColor=none;sketch=1;fontFamily=Comic Sans MS;" vertex="1" parent="1">
          <mxGeometry x="31" y="571" width="60" height="15" as="geometry" />
        </mxCell>
        <mxCell id="LNZX4o1E4JshtJrWb8Li-75" value="" style="rounded=0;whiteSpace=wrap;html=1;sketch=1;fontFamily=Comic Sans MS;" vertex="1" parent="1">
          <mxGeometry x="40" y="520" width="40" height="40" as="geometry" />
        </mxCell>
        <mxCell id="LNZX4o1E4JshtJrWb8Li-76" value="" style="ellipse;whiteSpace=wrap;html=1;aspect=fixed;fontFamily=Comic Sans MS;labelBackgroundColor=#000000;fillColor=#000000;sketch=1;" vertex="1" parent="1">
          <mxGeometry x="56" y="535" width="10" height="10" as="geometry" />
        </mxCell>
        <mxCell id="LNZX4o1E4JshtJrWb8Li-77" value="" style="endArrow=classic;html=1;rounded=0;sketch=1;fontFamily=Comic Sans MS;entryX=0.5;entryY=1;entryDx=0;entryDy=0;edgeStyle=orthogonalEdgeStyle;" edge="1" parent="1" source="LNZX4o1E4JshtJrWb8Li-76" target="LNZX4o1E4JshtJrWb8Li-61">
          <mxGeometry width="50" height="50" relative="1" as="geometry">
            <mxPoint x="250" y="730" as="sourcePoint" />
            <mxPoint x="160" y="540" as="targetPoint" />
            <Array as="points">
              <mxPoint x="120" y="540" />
              <mxPoint x="120" y="660" />
              <mxPoint x="340" y="660" />
            </Array>
          </mxGeometry>
        </mxCell>
        <mxCell id="LNZX4o1E4JshtJrWb8Li-79" value="" style="rounded=0;whiteSpace=wrap;html=1;sketch=1;fontFamily=Comic Sans MS;strokeColor=#FF3333;strokeWidth=3;" vertex="1" parent="1">
          <mxGeometry x="40" y="200" width="40" height="40" as="geometry" />
        </mxCell>
        <mxCell id="LNZX4o1E4JshtJrWb8Li-80" value="" style="ellipse;whiteSpace=wrap;html=1;aspect=fixed;fontFamily=Comic Sans MS;labelBackgroundColor=#000000;fillColor=#000000;sketch=1;strokeColor=#FF3333;strokeWidth=3;" vertex="1" parent="1">
          <mxGeometry x="56" y="215" width="10" height="10" as="geometry" />
        </mxCell>
        <mxCell id="LNZX4o1E4JshtJrWb8Li-82" value="" style="edgeStyle=orthogonalEdgeStyle;rounded=0;sketch=1;orthogonalLoop=1;jettySize=auto;html=1;fontFamily=Comic Sans MS;exitX=0.5;exitY=0;exitDx=0;exitDy=0;entryX=0.5;entryY=1;entryDx=0;entryDy=0;strokeColor=#FF3333;strokeWidth=3;" edge="1" parent="1" source="LNZX4o1E4JshtJrWb8Li-80" target="LNZX4o1E4JshtJrWb8Li-56">
          <mxGeometry relative="1" as="geometry" />
        </mxCell>
        <mxCell id="LNZX4o1E4JshtJrWb8Li-84" value="&lt;font size=&quot;1&quot; color=&quot;#ff3333&quot;&gt;&lt;b style=&quot;font-size: 18px;&quot;&gt;node **p = &amp;amp;head&lt;/b&gt;&lt;/font&gt;" style="text;html=1;strokeColor=none;fillColor=none;align=left;verticalAlign=middle;whiteSpace=wrap;rounded=0;labelBackgroundColor=none;sketch=1;fontFamily=Comic Sans MS;" vertex="1" parent="1">
          <mxGeometry x="-10" y="250" width="164" height="30" as="geometry" />
        </mxCell>
        <mxCell id="LNZX4o1E4JshtJrWb8Li-85" value="node *first = *p;&lt;br&gt;node *second = (*p)-&amp;gt;next;&lt;br&gt;node *third = (*p)-&amp;gt;next-&amp;gt;next" style="text;html=1;strokeColor=none;fillColor=none;align=left;verticalAlign=middle;whiteSpace=wrap;rounded=0;labelBackgroundColor=none;sketch=1;fontFamily=Comic Sans MS;fontSize=18;fontColor=#000000;" vertex="1" parent="1">
          <mxGeometry x="232" y="330" width="364" height="80" as="geometry" />
        </mxCell>
      </root>
    </mxGraphModel>
  </diagram>
</mxfile>
